<mxfile host="app.diagrams.net" modified="2023-04-18T14:32:07.894Z" agent="Mozilla/5.0 (Macintosh; Intel Mac OS X 10_15_7) AppleWebKit/537.36 (KHTML, like Gecko) Chrome/111.0.0.0 Safari/537.36" etag="nublelOPl77c-CdDaxEs" version="21.1.8" type="device">
  <diagram name="PÃ¡gina-1" id="VFF84zfFyO0ihIfJ6O_O">
    <mxGraphModel dx="954" dy="625" grid="1" gridSize="10" guides="1" tooltips="1" connect="1" arrows="1" fold="1" page="1" pageScale="1" pageWidth="827" pageHeight="1169" math="0" shadow="0">
      <root>
        <mxCell id="0" />
        <mxCell id="1" parent="0" />
        <mxCell id="hWF0GNDxo9MO23hyTjtb-1" value="Diagrama de Red privada" style="text;html=1;strokeColor=none;fillColor=none;align=center;verticalAlign=middle;whiteSpace=wrap;rounded=0;" vertex="1" parent="1">
          <mxGeometry x="270" y="27" width="220" height="30" as="geometry" />
        </mxCell>
        <mxCell id="hWF0GNDxo9MO23hyTjtb-2" value="" style="rounded=0;whiteSpace=wrap;html=1;" vertex="1" parent="1">
          <mxGeometry width="830" height="490" as="geometry" />
        </mxCell>
        <mxCell id="hWF0GNDxo9MO23hyTjtb-3" value="Diagrama de red privada" style="text;html=1;strokeColor=none;fillColor=none;align=center;verticalAlign=middle;whiteSpace=wrap;rounded=0;" vertex="1" parent="1">
          <mxGeometry x="300" y="10" width="190" height="30" as="geometry" />
        </mxCell>
        <mxCell id="hWF0GNDxo9MO23hyTjtb-4" value="Oficina principal" style="ellipse;shape=cloud;whiteSpace=wrap;html=1;" vertex="1" parent="1">
          <mxGeometry x="20" y="67" width="210" height="150" as="geometry" />
        </mxCell>
        <mxCell id="hWF0GNDxo9MO23hyTjtb-5" value="" style="shape=cylinder3;whiteSpace=wrap;html=1;boundedLbl=1;backgroundOutline=1;size=15;fillColor=#fff2cc;strokeColor=#d6b656;" vertex="1" parent="1">
          <mxGeometry x="215" y="77" width="60" height="50" as="geometry" />
        </mxCell>
        <mxCell id="hWF0GNDxo9MO23hyTjtb-6" value="" style="shape=cylinder3;whiteSpace=wrap;html=1;boundedLbl=1;backgroundOutline=1;size=15;fillColor=#fff2cc;strokeColor=#d6b656;" vertex="1" parent="1">
          <mxGeometry x="510" y="77" width="60" height="50" as="geometry" />
        </mxCell>
        <mxCell id="hWF0GNDxo9MO23hyTjtb-7" value="" style="shape=cube;whiteSpace=wrap;html=1;boundedLbl=1;backgroundOutline=1;darkOpacity=0.05;darkOpacity2=0.1;size=10;fillColor=#dae8fc;strokeColor=#6c8ebf;" vertex="1" parent="1">
          <mxGeometry x="226" y="162" width="54" height="40" as="geometry" />
        </mxCell>
        <mxCell id="hWF0GNDxo9MO23hyTjtb-8" value="" style="shape=process;whiteSpace=wrap;html=1;backgroundOutline=1;fillColor=#1ba1e2;fontColor=#ffffff;strokeColor=#006EAF;" vertex="1" parent="1">
          <mxGeometry x="500" y="167" width="70" height="40" as="geometry" />
        </mxCell>
        <mxCell id="hWF0GNDxo9MO23hyTjtb-9" value="" style="ellipse;shape=cloud;whiteSpace=wrap;html=1;" vertex="1" parent="1">
          <mxGeometry x="273" y="77" width="80" height="50" as="geometry" />
        </mxCell>
        <mxCell id="hWF0GNDxo9MO23hyTjtb-10" value="" style="ellipse;shape=cloud;whiteSpace=wrap;html=1;" vertex="1" parent="1">
          <mxGeometry x="283" y="157" width="80" height="50" as="geometry" />
        </mxCell>
        <mxCell id="hWF0GNDxo9MO23hyTjtb-11" value="Oficina Local" style="ellipse;shape=cloud;whiteSpace=wrap;html=1;" vertex="1" parent="1">
          <mxGeometry x="570" y="67" width="130" height="70" as="geometry" />
        </mxCell>
        <mxCell id="hWF0GNDxo9MO23hyTjtb-13" value="Usuarios &lt;br&gt;Remotos" style="ellipse;shape=cloud;whiteSpace=wrap;html=1;" vertex="1" parent="1">
          <mxGeometry x="570" y="152" width="130" height="70" as="geometry" />
        </mxCell>
        <mxCell id="hWF0GNDxo9MO23hyTjtb-15" value="Acceso remoto" style="text;html=1;strokeColor=none;fillColor=none;align=center;verticalAlign=middle;whiteSpace=wrap;rounded=0;" vertex="1" parent="1">
          <mxGeometry x="231" y="217" width="60" height="30" as="geometry" />
        </mxCell>
        <mxCell id="hWF0GNDxo9MO23hyTjtb-16" value="" style="endArrow=classic;html=1;rounded=0;" edge="1" parent="1">
          <mxGeometry width="50" height="50" relative="1" as="geometry">
            <mxPoint x="500" y="102" as="sourcePoint" />
            <mxPoint x="360" y="102" as="targetPoint" />
          </mxGeometry>
        </mxCell>
        <mxCell id="hWF0GNDxo9MO23hyTjtb-17" value="" style="endArrow=classic;html=1;rounded=0;" edge="1" parent="1">
          <mxGeometry width="50" height="50" relative="1" as="geometry">
            <mxPoint x="493" y="186.5" as="sourcePoint" />
            <mxPoint x="363" y="187" as="targetPoint" />
          </mxGeometry>
        </mxCell>
        <mxCell id="hWF0GNDxo9MO23hyTjtb-18" value="Terminal" style="text;html=1;strokeColor=none;fillColor=none;align=center;verticalAlign=middle;whiteSpace=wrap;rounded=0;" vertex="1" parent="1">
          <mxGeometry x="505" y="217" width="60" height="30" as="geometry" />
        </mxCell>
      </root>
    </mxGraphModel>
  </diagram>
</mxfile>
